<svg id="Layer_1" data-name="Layer 1" xmlns="http://www.w3.org/2000/svg" viewBox="0 0 70.64 70.64"><defs><style>.cls-1{fill:#4081c3;}</style></defs><title>logo</title><path class="cls-1" d="M192.56,27.06a35.32,35.32,0,1,0,35.32,35.32A35.33,35.33,0,0,0,192.56,27.06Zm0,62.49a27.17,27.17,0,1,1,27.17-27.17A27.17,27.17,0,0,1,192.56,89.55Z" transform="translate(-157.24 -27.06)"/><path class="cls-1" d="M192.56,51a11,11,0,1,0,11,11A11,11,0,0,0,192.56,51Zm0,17.26a6.22,6.22,0,1,1,6.22-6.22A6.23,6.23,0,0,1,192.56,68.3Z" transform="translate(-157.24 -27.06)"/><rect class="cls-1" x="42.94" y="30.2" width="26.32" height="7.83"/><rect class="cls-1" x="158.83" y="57.26" width="26.65" height="7.83" transform="translate(187.06 95.28) rotate(180)"/><rect class="cls-1" x="179.16" y="78.16" width="26.81" height="7.83" transform="translate(117.39 -137.55) rotate(90)"/></svg>